<?xml version="1.0" encoding="utf-8"?><svg xmlns="http://www.w3.org/2000/svg" xmlns:xlink="http://www.w3.org/1999/xlink" width="1347" height="625" preserveAspectRatio="xMidYMid" viewBox="0 0 1347 625" style="z-index:1;margin-right:-2px;display:block;background-repeat-y:initial;background-repeat-x:initial;background-color:rgb(241, 242, 243);animation-play-state:paused" ><g transform="" style="animation-play-state:paused" ><linearGradient id="lg-0.9814989737133346" x1="0" x2="1" y1="0" y2="0" style="animation-play-state:paused" ><stop stop-color="#4c838a" offset="0" style="animation-play-state:paused" ></stop>

  
<stop stop-color="#21917f" offset="1" style="animation-play-state:paused" ></stop></linearGradient>
<path fill="url(#lg-0.9814989737133346)" opacity="0.4" d="M 0 0 L 0 699.637 Q 134.7 613.825 269.4 570.32 T 538.8 453.111 T 808.2 279.269 T 1077.6 181.148 T 1347 73.7942 L 1347 0 Z" style="opacity:0.4;animation-play-state:paused" ></path>
<path fill="url(#lg-0.9814989737133346)" opacity="0.4" d="M 0 0 L 0 660.33 Q 134.7 638.171 269.4 604.049 T 538.8 429.767 T 808.2 314.958 T 1077.6 180.166 T 1347 42.2515 L 1347 0 Z" style="opacity:0.4;animation-play-state:paused" ></path>
<path fill="url(#lg-0.9814989737133346)" opacity="0.4" d="M 0 0 L 0 680.616 Q 134.7 546.379 269.4 524.731 T 538.8 452.267 T 808.2 365.143 T 1077.6 229.197 T 1347 48.8172 L 1347 0 Z" style="opacity:0.4;animation-play-state:paused" ></path></g></svg>